<mxfile host="app.diagrams.net" agent="Mozilla/5.0 (Windows NT 10.0; Win64; x64) AppleWebKit/537.36 (KHTML, like Gecko) Chrome/138.0.0.0 YaBrowser/25.8.0.0 Safari/537.36" version="28.2.3">
  <diagram name="Страница — 1" id="qO-1W3uomI82kl38dDZ8">
    <mxGraphModel dx="1042" dy="606" grid="1" gridSize="10" guides="1" tooltips="1" connect="1" arrows="1" fold="1" page="1" pageScale="1" pageWidth="827" pageHeight="1169" math="0" shadow="0">
      <root>
        <mxCell id="0" />
        <mxCell id="1" parent="0" />
        <mxCell id="MxlziOhT5EARPKxips8_-1" value="НАЧАЛО" style="ellipse;whiteSpace=wrap;html=1;fillColor=#FF66FF;" vertex="1" parent="1">
          <mxGeometry x="350" y="30" width="100" height="60" as="geometry" />
        </mxCell>
        <mxCell id="MxlziOhT5EARPKxips8_-2" value="" style="shape=flexArrow;endArrow=classic;html=1;rounded=0;" edge="1" parent="1">
          <mxGeometry width="50" height="50" relative="1" as="geometry">
            <mxPoint x="399.5" y="90" as="sourcePoint" />
            <mxPoint x="399.5" y="130" as="targetPoint" />
          </mxGeometry>
        </mxCell>
        <mxCell id="MxlziOhT5EARPKxips8_-3" value="num1, num2" style="shape=parallelogram;perimeter=parallelogramPerimeter;whiteSpace=wrap;html=1;fixedSize=1;" vertex="1" parent="1">
          <mxGeometry x="340" y="130" width="120" height="30" as="geometry" />
        </mxCell>
        <mxCell id="MxlziOhT5EARPKxips8_-4" value="" style="shape=flexArrow;endArrow=classic;html=1;rounded=0;" edge="1" parent="1">
          <mxGeometry width="50" height="50" relative="1" as="geometry">
            <mxPoint x="399.5" y="160" as="sourcePoint" />
            <mxPoint x="399.5" y="200" as="targetPoint" />
          </mxGeometry>
        </mxCell>
        <mxCell id="MxlziOhT5EARPKxips8_-6" value="num1 + num2" style="shape=parallelogram;perimeter=parallelogramPerimeter;whiteSpace=wrap;html=1;fixedSize=1;" vertex="1" parent="1">
          <mxGeometry x="340" y="200" width="120" height="30" as="geometry" />
        </mxCell>
        <mxCell id="MxlziOhT5EARPKxips8_-7" value="" style="shape=flexArrow;endArrow=classic;html=1;rounded=0;exitX=1;exitY=1;exitDx=0;exitDy=0;" edge="1" parent="1">
          <mxGeometry width="50" height="50" relative="1" as="geometry">
            <mxPoint x="401.4271428571429" y="230.00428571428566" as="sourcePoint" />
            <mxPoint x="401" y="270" as="targetPoint" />
          </mxGeometry>
        </mxCell>
        <mxCell id="MxlziOhT5EARPKxips8_-8" value="num2 - num1" style="shape=parallelogram;perimeter=parallelogramPerimeter;whiteSpace=wrap;html=1;fixedSize=1;" vertex="1" parent="1">
          <mxGeometry x="340" y="270" width="120" height="30" as="geometry" />
        </mxCell>
        <mxCell id="MxlziOhT5EARPKxips8_-9" value="" style="shape=flexArrow;endArrow=classic;html=1;rounded=0;exitX=0.83;exitY=1.133;exitDx=0;exitDy=0;exitPerimeter=0;entryX=0.5;entryY=0;entryDx=0;entryDy=0;" edge="1" parent="1" target="MxlziOhT5EARPKxips8_-10">
          <mxGeometry width="50" height="50" relative="1" as="geometry">
            <mxPoint x="399.4999999999999" y="300" as="sourcePoint" />
            <mxPoint x="399.9" y="336.01" as="targetPoint" />
          </mxGeometry>
        </mxCell>
        <mxCell id="MxlziOhT5EARPKxips8_-10" value="num2 * num1" style="shape=parallelogram;perimeter=parallelogramPerimeter;whiteSpace=wrap;html=1;fixedSize=1;" vertex="1" parent="1">
          <mxGeometry x="340" y="340" width="120" height="30" as="geometry" />
        </mxCell>
        <mxCell id="MxlziOhT5EARPKxips8_-11" value="" style="shape=flexArrow;endArrow=classic;html=1;rounded=0;" edge="1" parent="1">
          <mxGeometry width="50" height="50" relative="1" as="geometry">
            <mxPoint x="399.5" y="370" as="sourcePoint" />
            <mxPoint x="399.5" y="410" as="targetPoint" />
          </mxGeometry>
        </mxCell>
        <mxCell id="MxlziOhT5EARPKxips8_-12" value="num2 / num1" style="shape=parallelogram;perimeter=parallelogramPerimeter;whiteSpace=wrap;html=1;fixedSize=1;" vertex="1" parent="1">
          <mxGeometry x="340" y="410" width="120" height="30" as="geometry" />
        </mxCell>
        <mxCell id="MxlziOhT5EARPKxips8_-13" value="" style="shape=flexArrow;endArrow=classic;html=1;rounded=0;" edge="1" parent="1" target="MxlziOhT5EARPKxips8_-14">
          <mxGeometry width="50" height="50" relative="1" as="geometry">
            <mxPoint x="399.5" y="440" as="sourcePoint" />
            <mxPoint x="399.5" y="480" as="targetPoint" />
          </mxGeometry>
        </mxCell>
        <mxCell id="MxlziOhT5EARPKxips8_-14" value="num2 % num1" style="shape=parallelogram;perimeter=parallelogramPerimeter;whiteSpace=wrap;html=1;fixedSize=1;" vertex="1" parent="1">
          <mxGeometry x="340" y="480" width="120" height="30" as="geometry" />
        </mxCell>
        <mxCell id="MxlziOhT5EARPKxips8_-15" value="" style="shape=flexArrow;endArrow=classic;html=1;rounded=0;" edge="1" parent="1" target="MxlziOhT5EARPKxips8_-16">
          <mxGeometry width="50" height="50" relative="1" as="geometry">
            <mxPoint x="399.5" y="510" as="sourcePoint" />
            <mxPoint x="399.5" y="550" as="targetPoint" />
          </mxGeometry>
        </mxCell>
        <mxCell id="MxlziOhT5EARPKxips8_-16" value="КОНЕЦ" style="ellipse;whiteSpace=wrap;html=1;fillColor=#FF66FF;" vertex="1" parent="1">
          <mxGeometry x="345" y="550" width="110" height="60" as="geometry" />
        </mxCell>
      </root>
    </mxGraphModel>
  </diagram>
</mxfile>
